<?xml version="1.0" encoding="utf-8"?>
<!-- Generator: Adobe Illustrator 16.0.0, SVG Export Plug-In . SVG Version: 6.00 Build 0)  -->
<!DOCTYPE svg PUBLIC "-//W3C//DTD SVG 1.1//EN" "http://www.w3.org/Graphics/SVG/1.1/DTD/svg11.dtd">
<svg version="1.1" id="Layer_1" xmlns="http://www.w3.org/2000/svg" xmlns:xlink="http://www.w3.org/1999/xlink" x="0px" y="0px"
	 width="500px" height="350px" viewBox="0 0 500 350" enable-background="new 0 0 500 350" xml:space="preserve">
<path fill="#6BBC64" d="M177.167,109.816c0,0-0.521,0.673-1.53,1.977c-0.49,0.662-1.071,1.497-1.76,2.479
	c-0.65,1.02-1.437,2.167-2.227,3.527c-1.609,2.699-3.384,6.138-5.057,10.31c-0.804,2.101-1.626,4.364-2.309,6.836
	c-0.714,2.457-1.373,5.09-1.872,7.906c-1.015,5.621-1.598,11.919-1.384,18.728c0.23,6.801,1.152,14.11,3.123,21.617
	c1.98,7.495,4.926,15.206,9.127,22.604c4.227,7.367,9.606,14.476,16.335,20.449c6.749,5.92,14.663,10.852,23.608,13.797
	c4.445,1.532,9.148,2.495,13.966,3.142l1.952,0.227c0.744,0.093,1.336,0.139,1.946,0.19c1.195,0.114,2.536,0.202,3.82,0.281
	c2.594,0.155,5.2,0.2,7.81,0.166c10.427-0.168,20.966-1.771,30.753-5.342c4.892-1.777,9.56-4.072,13.906-6.798
	c4.352-2.719,8.358-5.928,11.866-9.603c7.03-7.344,12.078-16.473,14.824-26.724c2.717-10.181,3.253-21.917,1.475-32.36
	c-1.776-10.65-6.146-20.743-12.649-28.964c-0.385-0.533-0.809-1.03-1.237-1.523c-0.427-0.495-0.838-1.005-1.271-1.493
	c-0.912-0.931-1.756-1.933-2.724-2.803c-1.839-1.847-3.879-3.458-5.943-5.02c-4.21-3.01-8.782-5.508-13.687-7.216
	c-2.428-0.915-4.964-1.543-7.502-2.169c-2.575-0.497-5.167-0.971-7.829-1.137c-1.319-0.147-2.661-0.16-4-0.203l-0.502-0.018
	l-0.251-0.009c-0.167-0.004,0.617-0.012,0.132-0.005l-1.268,0.027l-1.267,0.027l-0.634,0.014l-0.394,0.038
	c-0.521,0.048-1.042,0.087-1.564,0.117l-1.851,0.223c-0.627,0.056-1.243,0.18-1.861,0.287c-0.617,0.113-1.242,0.191-1.849,0.351
	c-9.79,2.106-18.928,7.208-25.821,14.51c-1.708,1.834-3.284,3.783-4.719,5.828c-1.422,2.054-2.658,4.224-3.763,6.45
	c-2.177,4.466-3.747,9.218-4.517,14.119l-0.276,1.84l-0.184,1.853c-0.085,0.616-0.078,1.24-0.118,1.861l-0.049,0.932l-0.013,0.232
	c-0.005,0.154-0.014-0.575-0.009-0.119l0.004,0.609l0.008,1.217l0.004,0.608c0.003,0.183,0.017,0.245,0.023,0.373
	c0.04,0.468,0.032,0.861,0.077,1.395l0.171,1.7l0.256,1.685c0.806,4.464,2.375,8.776,4.668,12.694
	c2.295,3.91,5.302,7.417,8.817,10.259c3.52,2.842,7.515,5.017,11.726,6.519c2.107,0.752,4.284,1.297,6.493,1.646
	c0.548,0.113,1.106,0.161,1.662,0.231c0.555,0.077,1.112,0.139,1.673,0.163l0.839,0.061l0.209,0.016
	c-0.078,0.007,0.472,0.008-0.123,0.019l0.563,0.004l1.123,0.01c0.162-0.001,0.431,0.008,0.504,0l0.293-0.014
	c0.678-0.002,1.84-0.067,2.814-0.203c0.504-0.059,1.007-0.126,1.504-0.229c0.501-0.077,0.996-0.184,1.486-0.308
	c1.968-0.47,3.89-1.128,5.734-1.968c3.69-1.68,7.004-4.185,9.694-7.197c2.704-3.015,4.725-6.563,6.051-10.319
	c0.662-1.882,1.136-3.826,1.418-5.802c0.074-0.494,0.148-0.988,0.178-1.487l0.069-0.747l0.018-0.187
	c0.015,0.495,0.008-0.007,0.013,0.039l0.01-0.501l0.022-1l-0.005-0.542c0.021-0.309-0.017-0.788-0.042-1.242
	c-0.227-3.621-1.383-7.119-3.184-10.24c-1.815-3.115-4.331-5.821-7.282-7.818c-2.941-2.022-6.285-3.335-9.737-3.973l-1.302-0.202
	l-0.655-0.068l-0.328-0.036l-0.164-0.018c-0.234-0.004,0.14-0.016,0.018-0.017l-0.855-0.031l-0.428-0.016l-0.243-0.001l-0.481-0.015
	c-0.172-0.003-0.394,0.016-0.587,0.02c-1.607,0.059-3.19,0.335-4.713,0.799c-3.051,0.913-5.839,2.607-8.104,4.772
	c-2.278,2.164-3.989,4.831-5.049,7.674c-0.533,1.421-0.905,2.89-1.12,4.371c-0.06,0.37-0.09,0.742-0.14,1.113l-0.018,0.139
	c-0.01-0.222-0.007,0.038-0.012,0.033l-0.018,0.344l-0.032,0.666c-0.02,0.542-0.033,1.271,0.037,1.957
	c0.421,5.544,3.779,10.407,7.982,13.083c2.101,1.364,4.405,2.226,6.684,2.636c0.546,0.108,1.191,0.172,1.651,0.239
	c0.304,0.017,0.674,0.048,0.916,0.053c0.253,0.001,0.48,0.029,0.757,0.015c1.07-0.013,2.111-0.142,3.103-0.366
	c3.993-0.911,7.016-3.293,8.854-5.64c1.863-2.377,2.683-4.688,3.084-6.249c0.195-0.788,0.299-1.403,0.354-1.815
	c0.054-0.415,0.081-0.626,0.081-0.626s0.017,0.213,0.049,0.631c0.031,0.419,0.057,1.048,0.026,1.885
	c-0.088,1.651-0.373,4.227-1.93,7.235c-0.769,1.499-1.859,3.085-3.365,4.592c-1.51,1.493-3.455,2.891-5.838,3.909
	c-1.19,0.508-2.488,0.916-3.874,1.188c-0.335,0.078-0.733,0.12-1.105,0.18c-0.325,0.038-0.653,0.078-0.984,0.118
	c-0.818,0.055-1.473,0.09-2.241,0.076c-2.975-0.034-6.197-0.631-9.362-1.996c-3.162-1.355-6.27-3.48-8.851-6.429
	c-2.587-2.926-4.669-6.673-5.708-10.959c-0.272-1.066-0.453-2.139-0.6-3.413l-0.072-0.704l-0.035-0.343
	c-0.006-0.12-0.012,0.025-0.017-0.312l-0.008-0.205c-0.017-0.548-0.056-1.102-0.048-1.658c0.002-2.227,0.239-4.517,0.738-6.81
	c0.993-4.585,3.051-9.187,6.221-13.234c3.136-4.065,7.43-7.54,12.535-9.858c2.549-1.164,5.298-2.037,8.167-2.538
	c0.365-0.062,0.702-0.129,1.094-0.183l1.214-0.143l1.031-0.102l0.854-0.075c0.767-0.02,1.537-0.04,2.309-0.061
	c0.714,0.017,1.432,0.034,2.149,0.05c11.523,0.506,23.694,6.422,31.592,16.982c3.957,5.238,6.779,11.624,7.977,18.481
	c0.143,0.857,0.289,1.689,0.384,2.707l0.142,1.446l0.072,0.997l0.037,0.5c0.007,0.212,0.012-0.123,0.019,0.54l0.006,0.314
	l0.017,1.259c0.023,0.841-0.006,1.686-0.042,2.533c-0.137,3.389-0.602,6.818-1.416,10.209
	c-3.229,13.577-12.388,26.354-25.619,33.909c-3.293,1.894-6.83,3.452-10.531,4.606c-0.923,0.299-1.855,0.568-2.801,0.799
	c-0.94,0.256-1.893,0.465-2.852,0.652c-0.956,0.21-1.922,0.356-2.892,0.502c-0.918,0.158-2.065,0.261-3.155,0.361
	c-7.331,0.607-15.121-0.02-22.585-2.072c-15.006-4.015-28.808-13.82-37.832-27.445c-4.532-6.788-7.875-14.527-9.635-22.706
	l-0.595-3.08l-0.447-3.11c-0.135-1.074-0.224-2.299-0.319-3.446l-0.061-0.839l-0.027-0.608l-0.053-1.216l-0.027-0.608
	c0,0.253-0.016-0.679-0.013-0.728l0.002-0.376l0.013-1.505c0.02-1.004-0.001-2.01,0.077-3.016l0.187-3.022
	c0.088-1.007,0.212-2.012,0.323-3.021c0.97-8.049,3.166-16.053,6.585-23.554c1.731-3.739,3.712-7.378,5.987-10.84
	c2.288-3.453,4.826-6.748,7.597-9.854c5.585-6.165,12.095-11.571,19.359-15.826c1.798-1.095,3.676-2.052,5.554-3.013
	c1.914-0.887,3.833-1.771,5.812-2.52c3.94-1.523,7.991-2.813,12.138-3.693c1.029-0.257,2.075-0.426,3.117-0.62
	c1.043-0.189,2.085-0.387,3.137-0.508c1.061-0.136,2.078-0.281,3.177-0.398l3.488-0.267l0.869-0.058l0.634-0.018l1.267-0.038
	l1.268-0.037l0.767-0.008l0.382,0.007l0.766,0.015c2.042,0.041,4.082,0.072,6.132,0.262c4.096,0.25,8.192,0.91,12.262,1.699
	c4.052,0.905,8.092,1.966,11.999,3.461c7.864,2.835,15.288,6.914,22.023,11.846c3.326,2.519,6.555,5.176,9.483,8.125
	c1.517,1.424,2.878,2.988,4.293,4.503c0.683,0.777,1.335,1.579,2.001,2.37c0.667,0.79,1.324,1.587,1.933,2.42
	c2.556,3.244,4.764,6.718,6.823,10.252c1.969,3.58,3.823,7.218,5.312,10.985c3.101,7.49,5.134,15.308,6.29,23.153
	c0.337,1.958,0.474,3.93,0.697,5.892c0.157,1.981,0.27,3.891,0.349,5.926l0.035,3.159l0.002,1.577l-0.054,1.244l-0.108,2.479
	l-0.046,1.01l-0.054,0.715l-0.11,1.431c-0.638,7.624-2.033,15.265-4.324,22.687c-2.29,7.416-5.47,14.611-9.548,21.237
	c-4.106,6.607-9.068,12.632-14.629,17.844c-5.556,5.224-11.711,9.616-18.136,13.171c-6.433,3.557-13.157,6.22-19.897,8.188
	c-13.509,3.911-27.09,5.014-39.907,4.113c-3.207-0.216-6.375-0.532-9.489-0.971c-1.568-0.226-3.071-0.443-4.696-0.731
	c-0.802-0.137-1.619-0.276-2.276-0.412l-2.244-0.446c-6.315-1.311-12.433-3.234-18.149-5.801
	c-11.484-5.043-21.325-12.43-28.947-20.835c-7.634-8.426-13.271-17.693-17.144-26.961c-3.875-9.273-6.235-18.471-7.293-27.195
	c-1.094-8.718-1.065-16.937-0.19-24.401c0.428-3.732,1.041-7.279,1.803-10.621c0.773-3.34,1.721-6.467,2.738-9.38
	c4.088-11.695,9.797-19.641,14.043-24.461c2.108-2.444,3.95-4.11,5.161-5.229C176.524,110.374,177.167,109.816,177.167,109.816z"/>
</svg>
