<?xml version="1.0" encoding="utf-8"?>
<!-- Generator: Adobe Illustrator 16.0.0, SVG Export Plug-In . SVG Version: 6.00 Build 0)  -->
<!DOCTYPE svg PUBLIC "-//W3C//DTD SVG 1.1//EN" "http://www.w3.org/Graphics/SVG/1.1/DTD/svg11.dtd">
<svg version="1.1" id="Layer_1" xmlns="http://www.w3.org/2000/svg" xmlns:xlink="http://www.w3.org/1999/xlink" x="0px" y="0px"
	 width="500px" height="350px" viewBox="0 0 500 350" enable-background="new 0 0 500 350" xml:space="preserve">
<rect x="139.969" y="64.969" display="none" fill="#231F20" width="220.062" height="220.062"/>
<g>
	<g>
		<path fill="#E54848" d="M166.611,258.387c-31.476-31.477-31.476-82.69,0-114.166c31.476-31.477,82.692-31.476,114.169,0
			c31.477,31.477,31.477,82.689,0,114.166C249.305,289.864,198.088,289.864,166.611,258.387z M262.488,162.514
			c-21.391-21.39-56.195-21.39-77.583,0c-21.392,21.389-21.392,56.194,0,77.583c21.388,21.392,56.192,21.392,77.583,0
			C283.877,218.707,283.878,183.902,262.488,162.514z"/>
	</g>
	<polygon fill="#E54848" points="352.31,72.691 289.139,68.005 288.173,81.012 322.962,83.592 266.946,139.61 276.169,148.832 
		285.39,158.055 341.408,102.038 343.988,136.825 356.996,135.86 	"/>
</g>
</svg>
