<?xml version="1.0" encoding="utf-8"?>
<!-- Generator: Adobe Illustrator 16.0.0, SVG Export Plug-In . SVG Version: 6.00 Build 0)  -->
<!DOCTYPE svg PUBLIC "-//W3C//DTD SVG 1.1//EN" "http://www.w3.org/Graphics/SVG/1.1/DTD/svg11.dtd">
<svg version="1.1" id="Layer_1" xmlns="http://www.w3.org/2000/svg" xmlns:xlink="http://www.w3.org/1999/xlink" x="0px" y="0px"
	 width="500px" height="350px" viewBox="0 0 500 350" enable-background="new 0 0 500 350" xml:space="preserve">
<rect x="140.08" y="65.08" display="none" fill="#231F20" width="219.84" height="219.84"/>
<path display="none" fill="#6BBC64" d="M351.467,160.631c-0.306-1.017-0.671-2.03-1.193-2.983c-1.05-1.92-2.437-3.619-4.095-5.179
	c-0.41-0.409-0.802-0.709-1.206-1.063l-0.302-0.252c-0.174-0.139-0.244-0.183-0.372-0.279l-0.676-0.5
	c-0.447-0.335-0.947-0.622-1.415-0.93c-0.491-0.288-0.991-0.561-1.492-0.822c-2.037-1.016-4.283-1.671-6.465-1.883
	c-1.087-0.121-2.157-0.123-3.174-0.066c-0.267,0.023-0.523,0.058-0.782,0.087c-0.086-0.281-0.206-0.615-0.377-1.004
	c-0.512-1.174-1.45-2.792-2.894-4.577c-0.718-0.892-1.547-1.838-2.524-2.77c-0.973-0.937-2.043-1.9-3.261-2.811
	c-2.413-1.83-5.327-3.53-8.557-4.767c-1.612-0.616-3.297-1.126-5.006-1.478c-0.841-0.173-1.785-0.352-2.562-0.435l-0.604-0.075
	c-0.274-0.037-0.436-0.042-0.659-0.065c-0.416-0.033-0.826-0.083-1.24-0.098c-1.646-0.106-3.263-0.099-4.795,0.038
	c-1.53,0.123-2.979,0.395-4.252,0.809c-0.688,0.211-1.314,0.476-1.88,0.771l0.31-0.4l4.366-5.703l4.361-5.706l4.331-5.72
	l1.049-1.386l-2.015-0.057l-5.739-0.164l5.047-8.298l5.9-9.729l11.684-19.505l4.67-7.797l-7.157,6.4l-13.426,12.008
	c-4.487,3.994-8.916,8.031-13.374,12.046l-6.673,6.034l-6.643,6.059l-6.637,6.061l-6.606,6.085l-1.436,1.322l2.12-0.146l6.045-0.417
	l4.796-0.348c-1.861,2.313-3.716,4.628-5.556,6.952c-1.655,2.07-3.288,4.152-4.924,6.233l-0.016,0.003
	c-0.901,0.186-1.797,0.339-2.673,0.574c-0.873,0.25-1.736,0.498-2.591,0.742c-0.852,0.244-1.655,0.608-2.457,0.909
	c-0.569,0.201-1.099,0.462-1.616,0.73c-2.915-11.173-13.073-19.419-25.159-19.419c-10.687,0-19.864,6.451-23.861,15.669
	c-1.528,0.274-3.015,0.574-4.42,0.891c-1.727,0.379-3.341,0.811-4.814,1.252c-2.945,0.877-5.32,1.873-6.769,2.842
	c-0.413,0.267-0.735,0.536-0.984,0.789c-0.222-0.002-0.449,0.001-0.672,0c-1.836-4.788-6.463-8.192-11.896-8.192
	c-7.042,0-12.75,5.708-12.75,12.75c0,0.185,0.02,0.364,0.027,0.546c-0.718,0.369-1.418,0.762-2.096,1.184
	c-2.683,1.649-4.903,3.867-6.163,6.367c-1.28,2.5-1.448,5.216-0.843,7.586c0.61,2.411,1.894,4.401,3.321,6.098
	c1.43,1.693,3.146,3.016,4.879,3.903c1.732,0.898,3.489,1.315,4.925,1.425c1.41,0.116,2.506-0.042,3.242-0.17
	c-0.19,0.184-0.396,0.37-0.55,0.592c-0.833,0.941-1.475,2.165-1.908,3.549c-0.445,1.386-0.608,2.944-0.48,4.569
	c0.121,1.637,0.468,3.313,1.208,5.047c0.176,0.456,0.375,0.844,0.575,1.235l0.149,0.298l0.038,0.076l0.063,0.109l0.087,0.152
	l0.353,0.608c0.229,0.407,0.508,0.807,0.762,1.215c0.279,0.399,0.582,0.794,0.879,1.191c1.246,1.569,2.803,3.072,4.696,4.282
	c1.905,1.195,4.108,2.059,6.345,2.563c1.119,0.248,2.246,0.433,3.36,0.52c0.552,0.07,1.12,0.088,1.68,0.107
	c0.556,0.02,1.132,0.057,1.628,0.034c0.514-0.011,1.022-0.021,1.526-0.03c0.612-0.028,1.087-0.092,1.625-0.141
	c0.261-0.026,0.52-0.054,0.776-0.08c0.255-0.048,0.507-0.095,0.759-0.142c0.5-0.101,0.999-0.18,1.478-0.294
	c1.924-0.471,3.616-1.184,5.059-1.957c1.699-0.955,2.999-2.009,3.99-2.99c-0.382,1.236-0.562,2.686-0.36,4.25
	c0.095,0.804,0.281,1.636,0.581,2.487c0.149,0.431,0.335,0.845,0.578,1.291c0.229,0.422,0.494,0.823,0.76,1.221
	c1.086,1.606,2.559,3.22,4.475,4.541c1.776,1.247,3.878,2.284,6.154,2.997c-2.526,3.328-5.044,6.664-7.552,10.002l-8.835,11.772
	l-1.521,2.028l2.867-0.498l13.844-2.398c-1.804,3.246-3.602,6.495-5.387,9.748l-6.518,11.857c-2.181,3.951-4.341,7.908-6.489,11.871
	l-6.458,11.88l-5.429,9.991l8.394-8.502l7.685-7.783l7.648-7.807l15.291-15.619l15.213-15.67l7.593-7.843l7.566-7.861l2.404-2.498
	l-3.74,0.744l-11.997,2.384l7.241-12.451l1.824-3.17c0.135,0.291,0.273,0.583,0.443,0.878c0.68,1.252,1.747,2.507,3.14,3.619
	c1.373,1.133,3.115,2.064,5.016,2.774c1.9,0.719,3.962,1.239,6.076,1.568c0.531,0.073,1.058,0.167,1.597,0.224
	c0.546,0.053,1.091,0.106,1.639,0.159l1.567,0.101c0.278,0.015,0.48,0.036,0.825,0.039l0.809,0.015
	c2.164,0.052,4.342-0.039,6.463-0.299c2.124-0.258,4.185-0.679,6.121-1.229c1.94-0.54,3.723-1.282,5.324-2.076
	c1.607-0.792,2.992-1.708,4.18-2.617c0.997-0.769,1.831-1.542,2.535-2.285c0.33,0.177,0.838,0.396,1.512,0.597
	c0.681,0.226,1.538,0.409,2.526,0.622c0.481,0.097,0.998,0.176,1.543,0.269c0.574,0.096,1.172,0.146,1.807,0.199
	c1.268,0.106,2.669,0.069,4.134-0.08c1.467-0.144,2.982-0.454,4.491-0.871c1.508-0.426,2.996-0.974,4.458-1.582
	c1.475-0.598,2.883-1.306,4.293-2.007c0.689-0.369,1.381-0.739,2.067-1.106l0.997-0.558l0.492-0.281l0.521-0.313
	c1.37-0.826,2.593-1.779,3.637-2.791c1.052-1.007,1.891-2.093,2.571-3.156c0.691-1.061,1.196-2.117,1.553-3.112
	c0.74-1.981,0.924-3.699,0.942-4.883c0.011-0.619-0.024-1.093-0.061-1.408c0.25-0.04,0.497-0.081,0.759-0.128
	c1.438-0.271,3.048-0.693,4.711-1.354c1.666-0.655,3.396-1.554,4.966-2.78c1.563-1.218,3.031-2.732,4.001-4.545
	c0.972-1.8,1.61-3.847,1.527-5.94C351.915,162.703,351.713,161.662,351.467,160.631z"/>
<g>
	<g>
		<polygon fill="#E54848" points="140.08,284.92 189.667,284.92 189.667,123.008 140.08,96.664 		"/>
		<polygon fill="#E54848" points="225.207,284.92 274.793,284.92 274.793,168.233 225.207,141.889 		"/>
		<polygon fill="#E54848" points="310.332,187.114 310.332,284.92 359.92,284.92 359.92,213.459 		"/>
	</g>
	<polygon fill="#E54848" points="305.918,128.271 285.354,88.41 277.154,104.131 214.496,71.455 207.002,85.824 269.661,118.5 
		261.462,134.222 	"/>
</g>
</svg>
