<?xml version="1.0" encoding="utf-8"?>
<!-- Generator: Adobe Illustrator 16.0.0, SVG Export Plug-In . SVG Version: 6.00 Build 0)  -->
<!DOCTYPE svg PUBLIC "-//W3C//DTD SVG 1.1//EN" "http://www.w3.org/Graphics/SVG/1.1/DTD/svg11.dtd">
<svg version="1.1" id="Layer_1" xmlns="http://www.w3.org/2000/svg" xmlns:xlink="http://www.w3.org/1999/xlink" x="0px" y="0px"
	 width="500px" height="350px" viewBox="0 0 500 350" enable-background="new 0 0 500 350" xml:space="preserve">
<path fill="#6BBC64" d="M250,83.984c-60.693,0-109.895,34.406-109.895,76.849c0,23.887,15.585,45.228,40.032,59.322l-22.498,58.44
	c0,0,38.917-24.035,69.382-42.604c7.411,1.103,15.096,1.688,22.978,1.688c60.691,0,109.893-34.404,109.893-76.847
	C359.894,118.39,310.691,83.984,250,83.984z M206.333,144.999c8.744,0,15.833,7.089,15.833,15.833
	c0,8.745-7.089,15.834-15.833,15.834c-8.745,0-15.833-7.089-15.833-15.834C190.5,152.088,197.588,144.999,206.333,144.999z
	 M249.999,176.666c-8.744,0-15.833-7.089-15.833-15.834c0-8.744,7.089-15.833,15.833-15.833s15.834,7.089,15.834,15.833
	C265.833,169.577,258.743,176.666,249.999,176.666z M293.666,176.666c-8.744,0-15.834-7.089-15.834-15.834
	c0-8.744,7.09-15.833,15.834-15.833s15.834,7.089,15.834,15.833C309.5,169.577,302.41,176.666,293.666,176.666z"/>
</svg>
