<?xml version="1.0" encoding="utf-8"?>
<!-- Generator: Adobe Illustrator 16.0.0, SVG Export Plug-In . SVG Version: 6.00 Build 0)  -->
<!DOCTYPE svg PUBLIC "-//W3C//DTD SVG 1.1//EN" "http://www.w3.org/Graphics/SVG/1.1/DTD/svg11.dtd">
<svg version="1.1" id="Layer_1" xmlns="http://www.w3.org/2000/svg" xmlns:xlink="http://www.w3.org/1999/xlink" x="0px" y="0px"
	 width="500px" height="350px" viewBox="0 0 500 350" enable-background="new 0 0 500 350" xml:space="preserve">
<g>
	<circle fill="#E54848" cx="250" cy="129.167" r="16.041"/>
	<path fill="#E54848" d="M250,72.333c-56.61,0-102.667,46.056-102.667,102.667S193.39,277.666,250,277.666
		S352.666,231.61,352.666,175S306.61,72.333,250,72.333z M158.333,175c0-50.626,41.04-91.667,91.667-91.667
		c25.313,0,45.833,20.52,45.833,45.833C295.833,154.479,275.313,175,250,175c-25.313,0-45.833,20.52-45.833,45.833
		c0,25.313,20.52,45.833,45.833,45.833C199.374,266.666,158.333,225.626,158.333,175z M250,236.875
		c-8.86,0-16.042-7.182-16.042-16.042c0-8.859,7.182-16.041,16.042-16.041c8.859,0,16.041,7.182,16.041,16.041
		C266.041,229.693,258.859,236.875,250,236.875z"/>
</g>
</svg>
