<?xml version="1.0" encoding="utf-8"?>
<!-- Generator: Adobe Illustrator 16.0.0, SVG Export Plug-In . SVG Version: 6.00 Build 0)  -->
<!DOCTYPE svg PUBLIC "-//W3C//DTD SVG 1.1//EN" "http://www.w3.org/Graphics/SVG/1.1/DTD/svg11.dtd">
<svg version="1.1" id="Layer_1" xmlns="http://www.w3.org/2000/svg" xmlns:xlink="http://www.w3.org/1999/xlink" x="0px" y="0px"
	 width="500px" height="350px" viewBox="0 0 500 350" enable-background="new 0 0 500 350" xml:space="preserve">
<g>
	<g>
		<path fill="#E54848" d="M280.091,185.745h-56.184c-1.478,0-2.675,1.198-2.675,2.676v27.825c0,1.477,1.197,2.676,2.675,2.676
			h56.184c1.479,0,2.677-1.199,2.677-2.676v-27.825C282.768,186.943,281.57,185.745,280.091,185.745z"/>
		<path fill="#E54848" d="M352.212,185.745h-56.184c-1.478,0-2.675,1.198-2.675,2.676v27.825c0,1.477,1.197,2.676,2.675,2.676
			h56.184c1.479,0,2.676-1.199,2.676-2.676v-27.825C354.888,186.943,353.69,185.745,352.212,185.745z"/>
		<path fill="#E54848" d="M151.789,185.745h56.183c1.478,0,2.675,1.198,2.675,2.676v27.825c0,1.477-1.197,2.676-2.675,2.676h-56.183
			c-1.479,0-2.675-1.199-2.675-2.676v-27.825C149.113,186.943,150.31,185.745,151.789,185.745z"/>
	</g>
	<g>
		<path fill="#E54848" d="M280.091,98.745h-56.184c-1.478,0-2.675,1.198-2.675,2.676v27.825c0,1.477,1.197,2.676,2.675,2.676h56.184
			c1.479,0,2.677-1.199,2.677-2.676v-27.825C282.768,99.943,281.57,98.745,280.091,98.745z"/>
		<path fill="#E54848" d="M352.212,98.745h-56.184c-1.478,0-2.675,1.198-2.675,2.676v27.825c0,1.477,1.197,2.676,2.675,2.676h56.184
			c1.479,0,2.676-1.199,2.676-2.676v-27.825C354.888,99.943,353.69,98.745,352.212,98.745z"/>
		<path fill="#E54848" d="M151.789,98.745h56.183c1.478,0,2.675,1.198,2.675,2.676v27.825c0,1.477-1.197,2.676-2.675,2.676h-56.183
			c-1.479,0-2.675-1.199-2.675-2.676v-27.825C149.113,99.943,150.31,98.745,151.789,98.745z"/>
	</g>
	<g>
		<path fill="#E54848" d="M244.03,142.473h-56.184c-1.477,0-2.675,1.197-2.675,2.675v27.824c0,1.478,1.198,2.676,2.675,2.676h56.184
			c1.479,0,2.677-1.198,2.677-2.676v-27.824C246.707,143.67,245.51,142.473,244.03,142.473z"/>
		<path fill="#E54848" d="M174.707,172.972v-27.824c0-1.478-1.197-2.675-2.677-2.675h-31.95v33.176h31.95
			C173.51,175.648,174.707,174.45,174.707,172.972z"/>
		<path fill="#E54848" d="M329.293,172.972v-27.824c0-1.478,1.197-2.675,2.677-2.675h31.95v33.176h-31.95
			C330.49,175.648,329.293,174.45,329.293,172.972z"/>
		<path fill="#E54848" d="M329.293,259.973v-27.824c0-1.479,1.197-2.676,2.677-2.676h31.95v33.176h-31.95
			C330.49,262.648,329.293,261.45,329.293,259.973z"/>
		<path fill="#E54848" d="M316.152,142.473h-56.185c-1.478,0-2.675,1.197-2.675,2.675v27.824c0,1.478,1.197,2.676,2.675,2.676
			h56.185c1.477,0,2.674-1.198,2.674-2.676v-27.824C318.826,143.67,317.629,142.473,316.152,142.473z"/>
		<path fill="#E54848" d="M244.03,229.473h-56.184c-1.477,0-2.675,1.197-2.675,2.676v27.824c0,1.478,1.198,2.676,2.675,2.676h56.184
			c1.479,0,2.677-1.198,2.677-2.676v-27.824C246.707,230.67,245.51,229.473,244.03,229.473z"/>
		<path fill="#E54848" d="M174.707,259.973v-27.824c0-1.479-1.197-2.676-2.677-2.676h-31.95v33.176h31.95
			C173.51,262.648,174.707,261.45,174.707,259.973z"/>
		<path fill="#E54848" d="M316.152,229.473h-56.185c-1.478,0-2.675,1.197-2.675,2.676v27.824c0,1.478,1.197,2.676,2.675,2.676
			h56.185c1.477,0,2.674-1.198,2.674-2.676v-27.824C318.826,230.67,317.629,229.473,316.152,229.473z"/>
	</g>
</g>
</svg>
