<?xml version="1.0" encoding="utf-8"?>
<!-- Generator: Adobe Illustrator 16.0.0, SVG Export Plug-In . SVG Version: 6.00 Build 0)  -->
<!DOCTYPE svg PUBLIC "-//W3C//DTD SVG 1.1//EN" "http://www.w3.org/Graphics/SVG/1.1/DTD/svg11.dtd">
<svg version="1.1" id="Layer_1" xmlns="http://www.w3.org/2000/svg" xmlns:xlink="http://www.w3.org/1999/xlink" x="0px" y="0px"
	 width="500px" height="350px" viewBox="0 0 500 350" enable-background="new 0 0 500 350" xml:space="preserve">
<g>
	<circle fill="#6BBC64" cx="250" cy="175" r="53.768"/>
	<path fill="#6BBC64" d="M250,108c5.744,0,11.318,0.726,16.639,2.085L250,64.969l-16.639,45.116
		C238.682,108.725,244.256,108,250,108z"/>
	<path fill="#6BBC64" d="M206.933,123.675c4.4-3.692,9.137-6.719,14.086-9.098l-41.746-23.866l16.254,45.256
		C198.729,131.505,202.533,127.367,206.933,123.675z"/>
	<path fill="#6BBC64" d="M184.018,163.365c0.998-5.657,2.681-11.021,4.943-16.024l-47.32,8.551l41.541,24.221
		C182.767,174.637,183.021,169.022,184.018,163.365z"/>
	<path fill="#6BBC64" d="M191.976,208.5c-2.873-4.976-5.03-10.166-6.514-15.452l-30.752,36.967l47.391-8.147
		C198.263,217.938,194.848,213.474,191.976,208.5z"/>
	<path fill="#6BBC64" d="M227.084,237.959c-5.398-1.965-10.388-4.554-14.922-7.649l0.204,48.085l31.067-36.703
		C237.968,241.148,232.482,239.923,227.084,237.959z"/>
	<path fill="#6BBC64" d="M272.915,237.959c-5.398,1.965-10.885,3.188-16.348,3.731l31.064,36.705l0.206-48.086
		C283.303,233.406,278.313,235.994,272.915,237.959z"/>
	<path fill="#6BBC64" d="M308.023,208.5c-2.873,4.975-6.289,9.438-10.125,13.366l47.391,8.149l-30.751-36.968
		C313.055,198.335,310.895,203.525,308.023,208.5z"/>
	<path fill="#6BBC64" d="M315.982,163.366c0.996,5.657,1.249,11.272,0.835,16.748l41.542-24.22l-47.319-8.553
		C313.302,152.345,314.983,157.709,315.982,163.366z"/>
	<path fill="#6BBC64" d="M293.067,123.675c4.399,3.693,8.202,7.833,11.404,12.292l16.255-45.256l-41.746,23.864
		C283.93,116.955,288.666,119.984,293.067,123.675z"/>
</g>
</svg>
