<?xml version="1.0" encoding="utf-8"?>
<!-- Generator: Adobe Illustrator 16.0.0, SVG Export Plug-In . SVG Version: 6.00 Build 0)  -->
<!DOCTYPE svg PUBLIC "-//W3C//DTD SVG 1.1//EN" "http://www.w3.org/Graphics/SVG/1.1/DTD/svg11.dtd">
<svg version="1.1" id="Layer_1" xmlns="http://www.w3.org/2000/svg" xmlns:xlink="http://www.w3.org/1999/xlink" x="0px" y="0px"
	 width="500px" height="350px" viewBox="0 0 500 350" enable-background="new 0 0 500 350" xml:space="preserve">
<g>
	<path fill="#E54848" d="M247.155,261.646l-0.042-0.306l0.152-0.44l2.296-6.633l1.839-5.156l-5.268-5.067
		c-2.092-1.995-4.151-4.021-6.208-6.051l-12.358-12.155l-2.473-2.433l2.676-2.438l20.69-18.853l10.424-9.336l6.65-5.893
		l-7.402-5.125l-11.559-8.097l-11.513-8.163l-11.461-8.237l-2.764-1.986l1.874-2.641l12.785-18.018l6.493-8.942
		c2.075-2.86,4.146-5.723,6.264-8.554c0.081-1.533,0.157-3.065,0.234-4.598c-2.574-4.703-5.835-9.129-9.817-13.111
		c-22.553-22.553-59.118-22.553-81.67,0c-22.553,22.553-22.553,59.119,0,81.671l91.988,92.887
		C248.336,269.867,247.731,265.758,247.155,261.646z"/>
	<path fill="#E54848" d="M343.006,99.415c-22.553-22.553-59.119-22.552-81.671,0c-3.981,3.982-7.243,8.409-9.817,13.112
		c0.087,1.741,0.173,3.482,0.266,5.224l0.023,0.441l-0.323,0.548c-1.872,3.176-3.798,6.315-5.718,9.458l-5.757,9.433l-9.925,15.87
		l9.108,5.998l11.737,7.837l11.691,7.904l11.648,7.966l4.248,2.905l-3.872,3.391l-10.526,9.22l-10.576,9.164l-18.704,15.928
		l9.24,10.194c1.943,2.138,3.883,4.278,5.792,6.449l5.751,6.489l1.024,1.154l-0.562,1.241l-2.893,6.392l-2.825,6.09
		c0.178,4.099,0.329,8.2,0.438,12.305c0,0.021,0.001,0.041,0.002,0.062l92.202-93.103
		C365.558,158.534,365.56,121.968,343.006,99.415z"/>
</g>
</svg>
